<svg xmlns="http://www.w3.org/2000/svg" aria-hidden="true" style="display:none">
<symbol id="icon-bars" viewBox="0 0 1536 1792"><g transform="translate(0 1536) scale(1 -1)"><path d="M1536 192v-128q0 -26 -19 -45t-45 -19h-1408q-26 0 -45 19t-19 45v128q0 26 19 45t45 19h1408q26 0 45 -19t19 -45zM1536 704v-128q0 -26 -19 -45t-45 -19h-1408q-26 0 -45 19t-19 45v128q0 26 19 45t45 19h1408q26 0 45 -19t19 -45zM1536 1216v-128q0 -26 -19 -45 t-45 -19h-1408q-26 0 -45 19t-19 45v128q0 26 19 45t45 19h1408q26 0 45 -19t19 -45z" fill="currentColor"/></g></symbol>
<symbol id="icon-times" viewBox="0 0 1408 1792"><g transform="translate(0 1536) scale(1 -1)"><path d="M1298 214q0 -40 -28 -68l-136 -136q-28 -28 -68 -28t-68 28l-294 294l-294 -294q-28 -28 -68 -28t-68 28l-136 136q-28 28 -28 68t28 68l294 294l-294 294q-28 28 -28 68t28 68l136 136q28 28 68 28t68 -28l294 -294l294 294q28 28 68 28t68 -28l136 -136q28 -28 28 -68 t-28 -68l-294 -294l294 -294q28 -28 28 -68z" fill="currentColor"/></g></symbol>
<symbol id="icon-search" viewBox="0 0 1664 1792"><g transform="translate(0 1536) scale(1 -1)"><path d="M1152 704q0 185 -131.5 316.5t-316.5 131.5t-316.5 -131.5t-131.5 -316.5t131.5 -316.5t316.5 -131.5t316.5 131.5t131.5 316.5zM1664 -128q0 -52 -38 -90t-90 -38q-54 0 -90 38l-343 342q-179 -124 -399 -124q-143 0 -273.5 55.5t-225 150t-150 225t-55.5 273.5 t55.5 273.5t150 225t225 150t273.5 55.5t273.5 -55.5t225 -150t150 -225t55.5 -273.5q0 -220 -124 -399l343 -343q37 -37 37 -90z" fill="currentColor"/></g></symbol>
<symbol id="icon-arrow-right" viewBox="0 0 1536 1792"><g transform="translate(0 1536) scale(1 -1)"><path d="M1472 576q0 -54 -37 -91l-651 -651q-39 -37 -91 -37q-51 0 -90 37l-75 75q-38 38 -38 91t38 91l293 293h-704q-52 0 -84.5 37.5t-32.5 90.5v128q0 53 32.5 90.5t84.5 37.5h704l-293 294q-38 36 -38 90t38 90l75 75q38 38 90 38q53 0 91 -38l651 -651q37 -35 37 -90z" fill="currentColor"/></g></symbol>
<symbol id="icon-angle-right" viewBox="0 0 640 1792"><g transform="translate(0 1536) scale(1 -1)"><path d="M595 576q0 -13 -10 -23l-466 -466q-10 -10 -23 -10t-23 10l-50 50q-10 10 -10 23t10 23l393 393l-393 393q-10 10 -10 23t10 23l50 50q10 10 23 10t23 -10l466 -466q10 -10 10 -23z" fill="currentColor"/></g></symbol>
<symbol id="icon-angle-up" viewBox="0 0 1152 1792"><g transform="translate(0 1536) scale(1 -1)"><path d="M1075 352q0 -13 -10 -23l-50 -50q-10 -10 -23 -10t-23 10l-393 393l-393 -393q-10 -10 -23 -10t-23 10l-50 50q-10 10 -10 23t10 23l466 466q10 10 23 10t23 -10l466 -466q10 -10 10 -23z" fill="currentColor"/></g></symbol>
<symbol id="icon-mobile" viewBox="0 0 768 1792"><g transform="translate(0 1536) scale(1 -1)"><path d="M464 128q0 33 -23.5 56.5t-56.5 23.5t-56.5 -23.5t-23.5 -56.5t23.5 -56.5t56.5 -23.5t56.5 23.5t23.5 56.5zM672 288v704q0 13 -9.5 22.5t-22.5 9.5h-512q-13 0 -22.5 -9.5t-9.5 -22.5v-704q0 -13 9.5 -22.5t22.5 -9.5h512q13 0 22.5 9.5t9.5 22.5zM480 1136 q0 16 -16 16h-160q-16 0 -16 -16t16 -16h160q16 0 16 16zM768 1152v-1024q0 -52 -38 -90t-90 -38h-512q-52 0 -90 38t-38 90v1024q0 52 38 90t90 38h512q52 0 90 -38t38 -90z" fill="currentColor"/></g></symbol>
<symbol id="icon-gamepad" viewBox="0 0 1920 1792"><g transform="translate(0 1536) scale(1 -1)"><path d="M832 448v128q0 14 -9 23t-23 9h-192v192q0 14 -9 23t-23 9h-128q-14 0 -23 -9t-9 -23v-192h-192q-14 0 -23 -9t-9 -23v-128q0 -14 9 -23t23 -9h192v-192q0 -14 9 -23t23 -9h128q14 0 23 9t9 23v192h192q14 0 23 9t9 23zM1408 384q0 53 -37.5 90.5t-90.5 37.5t-90.5 -37.5 t-37.5 -90.5t37.5 -90.5t90.5 -37.5t90.5 37.5t37.5 90.5zM1664 640q0 53 -37.5 90.5t-90.5 37.5t-90.5 -37.5t-37.5 -90.5t37.5 -90.5t90.5 -37.5t90.5 37.5t37.5 90.5zM1920 512q0 -212 -150 -362t-362 -150q-192 0 -338 128h-220q-146 -128 -338 -128q-212 0 -362 150 t-150 362t150 362t362 150h896q212 0 362 -150t150 -362z" fill="currentColor"/></g></symbol>
<symbol id="icon-credit-card" viewBox="0 0 1920 1792"><g transform="translate(0 1536) scale(1 -1)"><path d="M1760 1408q66 0 113 -47t47 -113v-1216q0 -66 -47 -113t-113 -47h-1600q-66 0 -113 47t-47 113v1216q0 66 47 113t113 47h1600zM160 1280q-13 0 -22.5 -9.5t-9.5 -22.5v-224h1664v224q0 13 -9.5 22.5t-22.5 9.5h-1600zM1760 0q13 0 22.5 9.5t9.5 22.5v608h-1664v-608 q0 -13 9.5 -22.5t22.5 -9.5h1600zM256 128v128h256v-128h-256zM640 128v128h384v-128h-384z" fill="currentColor"/></g></symbol>
<symbol id="icon-ellipsis-h" viewBox="0 0 1408 1792"><g transform="translate(0 1536) scale(1 -1)"><path d="M384 800v-192q0 -40 -28 -68t-68 -28h-192q-40 0 -68 28t-28 68v192q0 40 28 68t68 28h192q40 0 68 -28t28 -68zM896 800v-192q0 -40 -28 -68t-68 -28h-192q-40 0 -68 28t-28 68v192q0 40 28 68t68 28h192q40 0 68 -28t28 -68zM1408 800v-192q0 -40 -28 -68t-68 -28h-192 q-40 0 -68 28t-28 68v192q0 40 28 68t68 28h192q40 0 68 -28t28 -68z" fill="currentColor"/></g></symbol>
<symbol id="icon-bolt" viewBox="0 0 896 1792"><g transform="translate(0 1536) scale(1 -1)"><path d="M885 970q18 -20 7 -44l-540 -1157q-13 -25 -42 -25q-4 0 -14 2q-17 5 -25.5 19t-4.5 30l197 808l-406 -101q-4 -1 -12 -1q-18 0 -31 11q-18 15 -13 39l201 825q4 14 16 23t28 9h328q19 0 32 -12.5t13 -29.5q0 -8 -5 -18l-171 -463l396 98q8 2 12 2q19 0 34 -15z" fill="currentColor"/></g></symbol>
<symbol id="icon-shield" viewBox="0 0 1280 1792"><g transform="translate(0 1536) scale(1 -1)"><path d="M1088 576v640h-448v-1137q119 63 213 137q235 184 235 360zM1280 1344v-768q0 -86 -33.5 -170.5t-83 -150t-118 -127.5t-126.5 -103t-121 -77.5t-89.5 -49.5t-42.5 -20q-12 -6 -26 -6t-26 6q-16 7 -42.5 20t-89.5 49.5t-121 77.5t-126.5 103t-118 127.5t-83 150 t-33.5 170.5v768q0 26 19 45t45 19h1152q26 0 45 -19t19 -45z" fill="currentColor"/></g></symbol>
<symbol id="icon-clock-o" viewBox="0 0 1536 1792"><g transform="translate(0 1536) scale(1 -1)"><path d="M896 992v-448q0 -14 -9 -23t-23 -9h-320q-14 0 -23 9t-9 23v64q0 14 9 23t23 9h224v352q0 14 9 23t23 9h64q14 0 23 -9t9 -23zM1312 640q0 148 -73 273t-198 198t-273 73t-273 -73t-198 -198t-73 -273t73 -273t198 -198t273 -73t273 73t198 198t73 273zM1536 640 q0 -209 -103 -385.5t-279.5 -279.5t-385.5 -103t-385.5 103t-279.5 279.5t-103 385.5t103 385.5t279.5 279.5t385.5 103t385.5 -103t279.5 -279.5t103 -385.5z" fill="currentColor"/></g></symbol>
<symbol id="icon-heart-o" viewBox="0 0 1792 1792"><g transform="translate(0 1536) scale(1 -1)"><path d="M1664 940q0 81 -21.5 143t-55 98.5t-81.5 59.5t-94 31t-98 8t-112 -25.5t-110.5 -64t-86.5 -72t-60 -61.5q-18 -22 -49 -22t-49 22q-24 28 -60 61.5t-86.5 72t-110.5 64t-112 25.5t-98 -8t-94 -31t-81.5 -59.5t-55 -98.5t-21.5 -143q0 -168 187 -355l581 -560l580 559 q188 188 188 356zM1792 940q0 -221 -229 -450l-623 -600q-18 -18 -44 -18t-44 18l-624 602q-10 8 -27.5 26t-55.5 65.5t-68 97.5t-53.5 121t-23.5 138q0 220 127 344t351 124q62 0 126.5 -21.5t120 -58t95.5 -68.5t76 -68q36 36 76 68t95.5 68.5t120 58t126.5 21.5 q224 0 351 -124t127 -344z" fill="currentColor"/></g></symbol>
<symbol id="icon-comments-o" viewBox="0 0 1792 1792"><g transform="translate(0 1536) scale(1 -1)"><path d="M704 1152q-153 0 -286 -52t-211.5 -141t-78.5 -191q0 -82 53 -158t149 -132l97 -56l-35 -84q34 20 62 39l44 31l53 -10q78 -14 153 -14q153 0 286 52t211.5 141t78.5 191t-78.5 191t-211.5 141t-286 52zM704 1280q191 0 353.5 -68.5t256.5 -186.5t94 -257t-94 -257 t-256.5 -186.5t-353.5 -68.5q-86 0 -176 16q-124 -88 -278 -128q-36 -9 -86 -16h-3q-11 0 -20.5 8t-11.5 21q-1 3 -1 6.5t0.5 6.5t2 6l2.5 5t3.5 5.5t4 5t4.5 5t4 4.5q5 6 23 25t26 29.5t22.5 29t25 38.5t20.5 44q-124 72 -195 177t-71 224q0 139 94 257t256.5 186.5 t353.5 68.5zM1526 111q10 -24 20.5 -44t25 -38.5t22.5 -29t26 -29.5t23 -25q1 -1 4 -4.5t4.5 -5t4 -5t3.5 -5.5l2.5 -5t2 -6t0.5 -6.5t-1 -6.5q-3 -14 -13 -22t-22 -7q-50 7 -86 16q-154 40 -278 128q-90 -16 -176 -16q-271 0 -472 132q58 -4 88 -4q161 0 309 45t264 129 q125 92 192 212t67 254q0 77 -23 152q129 -71 204 -178t75 -230q0 -120 -71 -224.5t-195 -176.5z" fill="currentColor"/></g></symbol>
<symbol id="icon-lock" viewBox="0 0 1152 1792"><g transform="translate(0 1536) scale(1 -1)"><path d="M320 768h512v192q0 106 -75 181t-181 75t-181 -75t-75 -181v-192zM1152 672v-576q0 -40 -28 -68t-68 -28h-960q-40 0 -68 28t-28 68v576q0 40 28 68t68 28h32v192q0 184 132 316t316 132t316 -132t132 -316v-192h32q40 0 68 -28t28 -68z" fill="currentColor"/></g></symbol>
<symbol id="icon-check-circle" viewBox="0 0 1536 1792"><g transform="translate(0 1536) scale(1 -1)"><path d="M1284 802q0 28 -18 46l-91 90q-19 19 -45 19t-45 -19l-408 -407l-226 226q-19 19 -45 19t-45 -19l-91 -90q-18 -18 -18 -46q0 -27 18 -45l362 -362q19 -19 45 -19q27 0 46 19l543 543q18 18 18 45zM1536 640q0 -209 -103 -385.5t-279.5 -279.5t-385.5 -103t-385.5 103 t-279.5 279.5t-103 385.5t103 385.5t279.5 279.5t385.5 103t385.5 -103t279.5 -279.5t103 -385.5z" fill="currentColor"/></g></symbol>
<symbol id="icon-phone" viewBox="0 0 1408 1792"><g transform="translate(0 1536) scale(1 -1)"><path d="M1408 296q0 -27 -10 -70.5t-21 -68.5q-21 -50 -122 -106q-94 -51 -186 -51q-27 0 -53 3.5t-57.5 12.5t-47 14.5t-55.5 20.5t-49 18q-98 35 -175 83q-127 79 -264 216t-216 264q-48 77 -83 175q-3 9 -18 49t-20.5 55.5t-14.5 47t-12.5 57.5t-3.5 53q0 92 51 186 q56 101 106 122q25 11 68.5 21t70.5 10q14 0 21 -3q18 -6 53 -76q11 -19 30 -54t35 -63.5t31 -53.5q3 -4 17.5 -25t21.5 -35.5t7 -28.5q0 -20 -28.5 -50t-62 -55t-62 -53t-28.5 -46q0 -9 5 -22.5t8.5 -20.5t14 -24t11.5 -19q76 -137 174 -235t235 -174q2 -1 19 -11.5t24 -14 t20.5 -8.5t22.5 -5q18 0 46 28.5t53 62t55 62t50 28.5q14 0 28.5 -7t35.5 -21.5t25 -17.5q25 -15 53.5 -31t63.5 -35t54 -30q70 -35 76 -53q3 -7 3 -21z" fill="currentColor"/></g></symbol>
<symbol id="icon-commenting-o" viewBox="0 0 1792 1792"><g transform="translate(0 1536) scale(1 -1)"><path d="M640 640q0 -53 -37.5 -90.5t-90.5 -37.5t-90.5 37.5t-37.5 90.5t37.5 90.5t90.5 37.5t90.5 -37.5t37.5 -90.5zM1024 640q0 -53 -37.5 -90.5t-90.5 -37.5t-90.5 37.5t-37.5 90.5t37.5 90.5t90.5 37.5t90.5 -37.5t37.5 -90.5zM1408 640q0 -53 -37.5 -90.5t-90.5 -37.5 t-90.5 37.5t-37.5 90.5t37.5 90.5t90.5 37.5t90.5 -37.5t37.5 -90.5zM896 1152q-204 0 -381.5 -69.5t-282 -187.5t-104.5 -255q0 -112 71.5 -213.5t201.5 -175.5l87 -50l-27 -96q-24 -91 -70 -172q152 63 275 171l43 38l57 -6q69 -8 130 -8q204 0 381.5 69.5t282 187.5 t104.5 255t-104.5 255t-282 187.5t-381.5 69.5zM1792 640q0 -174 -120 -321.5t-326 -233t-450 -85.5q-70 0 -145 8q-198 -175 -460 -242q-49 -14 -114 -22h-5q-15 0 -27 10.5t-16 27.5v1q-3 4 -0.5 12t2 10t4.5 9.5l6 9t7 8.5t8 9q7 8 31 34.5t34.5 38t31 39.5t32.5 51 t27 59t26 76q-157 89 -247.5 220t-90.5 281q0 130 71 248.5t191 204.5t286 136.5t348 50.5t348 -50.5t286 -136.5t191 -204.5t71 -248.5z" fill="currentColor"/></g></symbol>
<symbol id="icon-home" viewBox="0 0 1664 1792"><g transform="translate(0 1536) scale(1 -1)"><path d="M1408 544v-480q0 -26 -19 -45t-45 -19h-384v384h-256v-384h-384q-26 0 -45 19t-19 45v480q0 1 0.5 3t0.5 3l575 474l575 -474q1 -2 1 -6zM1631 613l-62 -74q-8 -9 -21 -11h-3q-13 0 -21 7l-692 577l-692 -577q-12 -8 -24 -7q-13 2 -21 11l-62 74q-8 10 -7 23.5t11 21.5 l719 599q32 26 76 26t76 -26l244 -204v195q0 14 9 23t23 9h192q14 0 23 -9t9 -23v-408l219 -182q10 -8 11 -21.5t-7 -23.5z" fill="currentColor"/></g></symbol>
<symbol id="icon-calendar" viewBox="0 0 1664 1792"><g transform="translate(0 1536) scale(1 -1)"><path d="M128 -128h288v288h-288v-288zM480 -128h320v288h-320v-288zM128 224h288v320h-288v-320zM480 224h320v320h-320v-320zM128 608h288v288h-288v-288zM864 -128h320v288h-320v-288zM480 608h320v288h-320v-288zM1248 -128h288v288h-288v-288zM864 224h320v320h-320v-320z M512 1088v288q0 13 -9.5 22.5t-22.5 9.5h-64q-13 0 -22.5 -9.5t-9.5 -22.5v-288q0 -13 9.5 -22.5t22.5 -9.5h64q13 0 22.5 9.5t9.5 22.5zM1248 224h288v320h-288v-320zM864 608h320v288h-320v-288zM1248 608h288v288h-288v-288zM1280 1088v288q0 13 -9.5 22.5t-22.5 9.5h-64 q-13 0 -22.5 -9.5t-9.5 -22.5v-288q0 -13 9.5 -22.5t22.5 -9.5h64q13 0 22.5 9.5t9.5 22.5zM1664 1152v-1280q0 -52 -38 -90t-90 -38h-1408q-52 0 -90 38t-38 90v1280q0 52 38 90t90 38h128v96q0 66 47 113t113 47h64q66 0 113 -47t47 -113v-96h384v96q0 66 47 113t113 47 h64q66 0 113 -47t47 -113v-96h128q52 0 90 -38t38 -90z" fill="currentColor"/></g></symbol>
<symbol id="icon-bullhorn" viewBox="0 0 1792 1792"><g transform="translate(0 1536) scale(1 -1)"><path d="M1664 896q53 0 90.5 -37.5t37.5 -90.5t-37.5 -90.5t-90.5 -37.5v-384q0 -52 -38 -90t-90 -38q-417 347 -812 380q-58 -19 -91 -66t-31 -100.5t40 -92.5q-20 -33 -23 -65.5t6 -58t33.5 -55t48 -50t61.5 -50.5q-29 -58 -111.5 -83t-168.5 -11.5t-132 55.5q-7 23 -29.5 87.5 t-32 94.5t-23 89t-15 101t3.5 98.5t22 110.5h-122q-66 0 -113 47t-47 113v192q0 66 47 113t113 47h480q435 0 896 384q52 0 90 -38t38 -90v-384zM1536 292v954q-394 -302 -768 -343v-270q377 -42 768 -341z" fill="currentColor"/></g></symbol>
<symbol id="icon-question-circle" viewBox="0 0 1536 1792"><g transform="translate(0 1536) scale(1 -1)"><path d="M896 160v192q0 14 -9 23t-23 9h-192q-14 0 -23 -9t-9 -23v-192q0 -14 9 -23t23 -9h192q14 0 23 9t9 23zM1152 832q0 88 -55.5 163t-138.5 116t-170 41q-243 0 -371 -213q-15 -24 8 -42l132 -100q7 -6 19 -6q16 0 25 12q53 68 86 92q34 24 86 24q48 0 85.5 -26t37.5 -59 q0 -38 -20 -61t-68 -45q-63 -28 -115.5 -86.5t-52.5 -125.5v-36q0 -14 9 -23t23 -9h192q14 0 23 9t9 23q0 19 21.5 49.5t54.5 49.5q32 18 49 28.5t46 35t44.5 48t28 60.5t12.5 81zM1536 640q0 -209 -103 -385.5t-279.5 -279.5t-385.5 -103t-385.5 103t-279.5 279.5 t-103 385.5t103 385.5t279.5 279.5t385.5 103t385.5 -103t279.5 -279.5t103 -385.5z" fill="currentColor"/></g></symbol>
<symbol id="icon-list-alt" viewBox="0 0 1792 1792"><g transform="translate(0 1536) scale(1 -1)"><path d="M384 352v-64q0 -13 -9.5 -22.5t-22.5 -9.5h-64q-13 0 -22.5 9.5t-9.5 22.5v64q0 13 9.5 22.5t22.5 9.5h64q13 0 22.5 -9.5t9.5 -22.5zM384 608v-64q0 -13 -9.5 -22.5t-22.5 -9.5h-64q-13 0 -22.5 9.5t-9.5 22.5v64q0 13 9.5 22.5t22.5 9.5h64q13 0 22.5 -9.5t9.5 -22.5z M384 864v-64q0 -13 -9.5 -22.5t-22.5 -9.5h-64q-13 0 -22.5 9.5t-9.5 22.5v64q0 13 9.5 22.5t22.5 9.5h64q13 0 22.5 -9.5t9.5 -22.5zM1536 352v-64q0 -13 -9.5 -22.5t-22.5 -9.5h-960q-13 0 -22.5 9.5t-9.5 22.5v64q0 13 9.5 22.5t22.5 9.5h960q13 0 22.5 -9.5t9.5 -22.5z M1536 608v-64q0 -13 -9.5 -22.5t-22.5 -9.5h-960q-13 0 -22.5 9.5t-9.5 22.5v64q0 13 9.5 22.5t22.5 9.5h960q13 0 22.5 -9.5t9.5 -22.5zM1536 864v-64q0 -13 -9.5 -22.5t-22.5 -9.5h-960q-13 0 -22.5 9.5t-9.5 22.5v64q0 13 9.5 22.5t22.5 9.5h960q13 0 22.5 -9.5 t9.5 -22.5zM1664 160v832q0 13 -9.5 22.5t-22.5 9.5h-1472q-13 0 -22.5 -9.5t-9.5 -22.5v-832q0 -13 9.5 -22.5t22.5 -9.5h1472q13 0 22.5 9.5t9.5 22.5zM1792 1248v-1088q0 -66 -47 -113t-113 -47h-1472q-66 0 -113 47t-47 113v1088q0 66 47 113t113 47h1472q66 0 113 -47 t47 -113z" fill="currentColor"/></g></symbol>
<symbol id="icon-user" viewBox="0 0 1280 1792"><g transform="translate(0 1536) scale(1 -1)"><path d="M1280 137q0 -109 -62.5 -187t-150.5 -78h-854q-88 0 -150.5 78t-62.5 187q0 85 8.5 160.5t31.5 152t58.5 131t94 89t134.5 34.5q131 -128 313 -128t313 128q76 0 134.5 -34.5t94 -89t58.5 -131t31.5 -152t8.5 -160.5zM1024 1024q0 -159 -112.5 -271.5t-271.5 -112.5 t-271.5 112.5t-112.5 271.5t112.5 271.5t271.5 112.5t271.5 -112.5t112.5 -271.5z" fill="currentColor"/></g></symbol>
<symbol id="icon-money" viewBox="0 0 1920 1792"><g transform="translate(0 1536) scale(1 -1)"><path d="M768 384h384v96h-128v448h-114l-148 -137l77 -80q42 37 55 57h2v-288h-128v-96zM1280 640q0 -70 -21 -142t-59.5 -134t-101.5 -101t-138 -39t-138 39t-101.5 101t-59.5 134t-21 142t21 142t59.5 134t101.5 101t138 39t138 -39t101.5 -101t59.5 -134t21 -142zM1792 384 v512q-106 0 -181 75t-75 181h-1152q0 -106 -75 -181t-181 -75v-512q106 0 181 -75t75 -181h1152q0 106 75 181t181 75zM1920 1216v-1152q0 -26 -19 -45t-45 -19h-1792q-26 0 -45 19t-19 45v1152q0 26 19 45t45 19h1792q26 0 45 -19t19 -45z" fill="currentColor"/></g></symbol>
<symbol id="icon-sliders" viewBox="0 0 1536 1792"><g transform="translate(0 1536) scale(1 -1)"><path d="M352 128v-128h-352v128h352zM704 256q26 0 45 -19t19 -45v-256q0 -26 -19 -45t-45 -19h-256q-26 0 -45 19t-19 45v256q0 26 19 45t45 19h256zM864 640v-128h-864v128h864zM224 1152v-128h-224v128h224zM1536 128v-128h-736v128h736zM576 1280q26 0 45 -19t19 -45v-256 q0 -26 -19 -45t-45 -19h-256q-26 0 -45 19t-19 45v256q0 26 19 45t45 19h256zM1216 768q26 0 45 -19t19 -45v-256q0 -26 -19 -45t-45 -19h-256q-26 0 -45 19t-19 45v256q0 26 19 45t45 19h256zM1536 640v-128h-224v128h224zM1536 1152v-128h-864v128h864z" fill="currentColor"/></g></symbol>
<symbol id="icon-info-circle" viewBox="0 0 1536 1792"><g transform="translate(0 1536) scale(1 -1)"><path d="M1024 160v160q0 14 -9 23t-23 9h-96v512q0 14 -9 23t-23 9h-320q-14 0 -23 -9t-9 -23v-160q0 -14 9 -23t23 -9h96v-320h-96q-14 0 -23 -9t-9 -23v-160q0 -14 9 -23t23 -9h448q14 0 23 9t9 23zM896 1056v160q0 14 -9 23t-23 9h-192q-14 0 -23 -9t-9 -23v-160q0 -14 9 -23 t23 -9h192q14 0 23 9t9 23zM1536 640q0 -209 -103 -385.5t-279.5 -279.5t-385.5 -103t-385.5 103t-279.5 279.5t-103 385.5t103 385.5t279.5 279.5t385.5 103t385.5 -103t279.5 -279.5t103 -385.5z" fill="currentColor"/></g></symbol>
<symbol id="icon-exclamation-triangle" viewBox="0 0 1792 1792"><g transform="translate(0 1536) scale(1 -1)"><path d="M1024 161v190q0 14 -9.5 23.5t-22.5 9.5h-192q-13 0 -22.5 -9.5t-9.5 -23.5v-190q0 -14 9.5 -23.5t22.5 -9.5h192q13 0 22.5 9.5t9.5 23.5zM1022 535l18 459q0 12 -10 19q-13 11 -24 11h-220q-11 0 -24 -11q-10 -7 -10 -21l17 -457q0 -10 10 -16.5t24 -6.5h185 q14 0 23.5 6.5t10.5 16.5zM1008 1469l768 -1408q35 -63 -2 -126q-17 -29 -46.5 -46t-63.5 -17h-1536q-34 0 -63.5 17t-46.5 46q-37 63 -2 126l768 1408q17 31 47 49t65 18t65 -18t47 -49z" fill="currentColor"/></g></symbol>
<symbol id="icon-check" viewBox="0 0 1792 1792"><g transform="translate(0 1536) scale(1 -1)"><path d="M1671 970q0 -40 -28 -68l-724 -724l-136 -136q-28 -28 -68 -28t-68 28l-136 136l-362 362q-28 28 -28 68t28 68l136 136q28 28 68 28t68 -28l294 -295l656 657q28 28 68 28t68 -28l136 -136q28 -28 28 -68z" fill="currentColor"/></g></symbol>
<symbol id="icon-external-link" viewBox="0 0 1792 1792"><g transform="translate(0 1536) scale(1 -1)"><path d="M1408 608v-320q0 -119 -84.5 -203.5t-203.5 -84.5h-832q-119 0 -203.5 84.5t-84.5 203.5v832q0 119 84.5 203.5t203.5 84.5h704q14 0 23 -9t9 -23v-64q0 -14 -9 -23t-23 -9h-704q-66 0 -113 -47t-47 -113v-832q0 -66 47 -113t113 -47h832q66 0 113 47t47 113v320 q0 14 9 23t23 9h64q14 0 23 -9t9 -23zM1792 1472v-512q0 -26 -19 -45t-45 -19t-45 19l-176 176l-652 -652q-10 -10 -23 -10t-23 10l-114 114q-10 10 -10 23t10 23l652 652l-176 176q-19 19 -19 45t19 45t45 19h512q26 0 45 -19t19 -45z" fill="currentColor"/></g></symbol>
<symbol id="icon-refresh" viewBox="0 0 1536 1792"><g transform="translate(0 1536) scale(1 -1)"><path d="M1511 480q0 -5 -1 -7q-64 -268 -268 -434.5t-478 -166.5q-146 0 -282.5 55t-243.5 157l-129 -129q-19 -19 -45 -19t-45 19t-19 45v448q0 26 19 45t45 19h448q26 0 45 -19t19 -45t-19 -45l-137 -137q71 -66 161 -102t187 -36q134 0 250 65t186 179q11 17 53 117 q8 23 30 23h192q13 0 22.5 -9.5t9.5 -22.5zM1536 1280v-448q0 -26 -19 -45t-45 -19h-448q-26 0 -45 19t-19 45t19 45l138 138q-148 137 -349 137q-134 0 -250 -65t-186 -179q-11 -17 -53 -117q-8 -23 -30 -23h-199q-13 0 -22.5 9.5t-9.5 22.5v7q65 268 270 434.5t480 166.5 q146 0 284 -55.5t245 -156.5l130 129q19 19 45 19t45 -19t19 -45z" fill="currentColor"/></g></symbol>
<symbol id="icon-filter" viewBox="0 0 1408 1792"><g transform="translate(0 1536) scale(1 -1)"><path d="M1403 1241q17 -41 -14 -70l-493 -493v-742q0 -42 -39 -59q-13 -5 -25 -5q-27 0 -45 19l-256 256q-19 19 -19 45v486l-493 493q-31 29 -14 70q17 39 59 39h1280q42 0 59 -39z" fill="currentColor"/></g></symbol>
<symbol id="icon-chevron-down" viewBox="0 0 1792 1792"><g transform="translate(0 1536) scale(1 -1)"><path d="M1683 728l-742 -741q-19 -19 -45 -19t-45 19l-742 741q-19 19 -19 45.5t19 45.5l166 165q19 19 45 19t45 -19l531 -531l531 531q19 19 45 19t45 -19l166 -165q19 -19 19 -45.5t-19 -45.5z" fill="currentColor"/></g></symbol>
<symbol id="icon-chevron-up" viewBox="0 0 1792 1792"><g transform="translate(0 1536) scale(1 -1)"><path d="M1683 205l-166 -165q-19 -19 -45 -19t-45 19l-531 531l-531 -531q-19 -19 -45 -19t-45 19l-166 165q-19 19 -19 45.5t19 45.5l742 741q19 19 45 19t45 -19l742 -741q19 -19 19 -45.5t-19 -45.5z" fill="currentColor"/></g></symbol>
<symbol id="icon-map-marker" viewBox="0 0 1024 1792"><g transform="translate(0 1536) scale(1 -1)"><path d="M768 896q0 106 -75 181t-181 75t-181 -75t-75 -181t75 -181t181 -75t181 75t75 181zM1024 896q0 -109 -33 -179l-364 -774q-16 -33 -47.5 -52t-67.5 -19t-67.5 19t-46.5 52l-365 774q-33 70 -33 179q0 212 150 362t362 150t362 -150t150 -362z" fill="currentColor"/></g></symbol>
<symbol id="icon-briefcase" viewBox="0 0 1792 1792"><g transform="translate(0 1536) scale(1 -1)"><path d="M640 1280h512v128h-512v-128zM1792 640v-480q0 -66 -47 -113t-113 -47h-1472q-66 0 -113 47t-47 113v480h672v-160q0 -26 19 -45t45 -19h320q26 0 45 19t19 45v160h672zM1024 640v-128h-256v128h256zM1792 1120v-384h-1792v384q0 66 47 113t113 47h352v160q0 40 28 68 t68 28h576q40 0 68 -28t28 -68v-160h352q66 0 113 -47t47 -113z" fill="currentColor"/></g></symbol>
<symbol id="icon-file-text-o" viewBox="0 0 1536 1792"><g transform="translate(0 1536) scale(1 -1)"><path d="M1468 1156q28 -28 48 -76t20 -88v-1152q0 -40 -28 -68t-68 -28h-1344q-40 0 -68 28t-28 68v1600q0 40 28 68t68 28h896q40 0 88 -20t76 -48zM1024 1400v-376h376q-10 29 -22 41l-313 313q-12 12 -41 22zM1408 -128v1024h-416q-40 0 -68 28t-28 68v416h-768v-1536h1280z M384 736q0 14 9 23t23 9h704q14 0 23 -9t9 -23v-64q0 -14 -9 -23t-23 -9h-704q-14 0 -23 9t-9 23v64zM1120 512q14 0 23 -9t9 -23v-64q0 -14 -9 -23t-23 -9h-704q-14 0 -23 9t-9 23v64q0 14 9 23t23 9h704zM1120 256q14 0 23 -9t9 -23v-64q0 -14 -9 -23t-23 -9h-704 q-14 0 -23 9t-9 23v64q0 14 9 23t23 9h704z" fill="currentColor"/></g></symbol>
<symbol id="icon-handshake-o" viewBox="0 0 2304 1792"><g transform="translate(0 1536) scale(1 -1)"><path d="M192 384q40 0 56 32t0 64t-56 32t-56 -32t0 -64t56 -32zM1665 442q-10 13 -38.5 50t-41.5 54t-38 49t-42.5 53t-40.5 47t-45 49l-125 -140q-83 -94 -208.5 -92t-205.5 98q-57 69 -56.5 158t58.5 157l177 206q-22 11 -51 16.5t-47.5 6t-56.5 -0.5t-49 -1q-92 0 -158 -66 l-158 -158h-155v-544q5 0 21 0.5t22 0t19.5 -2t20.5 -4.5t17.5 -8.5t18.5 -13.5l297 -292q115 -111 227 -111q78 0 125 47q57 -20 112.5 8t72.5 85q74 -6 127 44q20 18 36 45.5t14 50.5q10 -10 43 -10q43 0 77 21t49.5 53t12 71.5t-30.5 73.5zM1824 384h96v512h-93l-157 180 q-66 76 -169 76h-167q-89 0 -146 -67l-209 -243q-28 -33 -28 -75t27 -75q43 -51 110 -52t111 49l193 218q25 23 53.5 21.5t47 -27t8.5 -56.5q16 -19 56 -63t60 -68q29 -36 82.5 -105.5t64.5 -84.5q52 -66 60 -140zM2112 384q40 0 56 32t0 64t-56 32t-56 -32t0 -64t56 -32z M2304 960v-640q0 -26 -19 -45t-45 -19h-434q-27 -65 -82 -106.5t-125 -51.5q-33 -48 -80.5 -81.5t-102.5 -45.5q-42 -53 -104.5 -81.5t-128.5 -24.5q-60 -34 -126 -39.5t-127.5 14t-117 53.5t-103.5 81l-287 282h-358q-26 0 -45 19t-19 45v672q0 26 19 45t45 19h421 q14 14 47 48t47.5 48t44 40t50.5 37.5t51 25.5t62 19.5t68 5.5h117q99 0 181 -56q82 56 181 56h167q35 0 67 -6t56.5 -14.5t51.5 -26.5t44.5 -31t43 -39.5t39 -42t41 -48t41.5 -48.5h355q26 0 45 -19t19 -45z" fill="currentColor"/></g></symbol>
<symbol id="icon-diamond" viewBox="0 0 2048 1792"><g transform="translate(0 1536) scale(1 -1)"><path d="M212 768l623 -665l-300 665h-323zM1024 -4l349 772h-698zM538 896l204 384h-262l-288 -384h346zM1213 103l623 665h-323zM683 896h682l-204 384h-274zM1510 896h346l-288 384h-262zM1651 1382l384 -512q14 -18 13 -41.5t-17 -40.5l-960 -1024q-18 -20 -47 -20t-47 20 l-960 1024q-16 17 -17 40.5t13 41.5l384 512q18 26 51 26h1152q33 0 51 -26z" fill="currentColor"/></g></symbol>
<symbol id="icon-headphones" viewBox="0 0 1664 1792"><g transform="translate(0 1536) scale(1 -1)"><path d="M1664 650q0 -166 -60 -314l-20 -49l-185 -33q-22 -83 -90.5 -136.5t-156.5 -53.5v-32q0 -14 -9 -23t-23 -9h-64q-14 0 -23 9t-9 23v576q0 14 9 23t23 9h64q14 0 23 -9t9 -23v-32q71 0 130 -35.5t93 -95.5l68 12q29 95 29 193q0 148 -88 279t-236.5 209t-315.5 78 t-315.5 -78t-236.5 -209t-88 -279q0 -98 29 -193l68 -12q34 60 93 95.5t130 35.5v32q0 14 9 23t23 9h64q14 0 23 -9t9 -23v-576q0 -14 -9 -23t-23 -9h-64q-14 0 -23 9t-9 23v32q-88 0 -156.5 53.5t-90.5 136.5l-185 33l-20 49q-60 148 -60 314q0 151 67 291t179 242.5 t266 163.5t320 61t320 -61t266 -163.5t179 -242.5t67 -291z" fill="currentColor"/></g></symbol>
<symbol id="icon-ticket" viewBox="0 0 1792 1792"><g transform="translate(0 1536) scale(1 -1)"><path d="M1024 1084l316 -316l-572 -572l-316 316zM813 105l618 618q19 19 19 45t-19 45l-362 362q-18 18 -45 18t-45 -18l-618 -618q-19 -19 -19 -45t19 -45l362 -362q18 -18 45 -18t45 18zM1702 742l-907 -908q-37 -37 -90.5 -37t-90.5 37l-126 126q56 56 56 136t-56 136 t-136 56t-136 -56l-125 126q-37 37 -37 90.5t37 90.5l907 906q37 37 90.5 37t90.5 -37l125 -125q-56 -56 -56 -136t56 -136t136 -56t136 56l126 -125q37 -37 37 -90.5t-37 -90.5z" fill="currentColor"/></g></symbol>
<symbol id="icon-circle-o-notch" viewBox="0 0 1792 1792"><g transform="translate(0 1536) scale(1 -1)"><path d="M1760 640q0 -176 -68.5 -336t-184 -275.5t-275.5 -184t-336 -68.5t-336 68.5t-275.5 184t-184 275.5t-68.5 336q0 213 97 398.5t265 305.5t374 151v-228q-221 -45 -366.5 -221t-145.5 -406q0 -130 51 -248.5t136.5 -204t204 -136.5t248.5 -51t248.5 51t204 136.5 t136.5 204t51 248.5q0 230 -145.5 406t-366.5 221v228q206 -31 374 -151t265 -305.5t97 -398.5z" fill="currentColor"/></g></symbol>
</svg>
